<?xml version="1.0" standalone="no"?>
<!DOCTYPE svg PUBLIC "-//W3C//DTD SVG 20010904//EN"
 "http://www.w3.org/TR/2001/REC-SVG-20010904/DTD/svg10.dtd">
<svg version="1.0" xmlns="http://www.w3.org/2000/svg"
 width="256.000000pt" height="256.000000pt" viewBox="0 0 256.000000 256.000000"
 preserveAspectRatio="xMidYMid meet">
<metadata>
Created by potrace 1.14, written by Peter Selinger 2001-2017
</metadata>
<g transform="translate(0.000000,256.000000) scale(0.100000,-0.100000)"
fill="#000000" stroke="none">
<path d="M244 2466 c-73 -26 -127 -81 -152 -153 -15 -45 -15 -2020 0 -2066 15
-43 68 -117 85 -117 7 0 13 -4 13 -8 0 -4 20 -15 45 -24 41 -15 137 -17 1050
-17 985 1 1065 3 1065 31 0 4 6 8 13 8 20 0 50 29 83 80 l29 45 3 1010 c2 904
0 1015 -14 1061 -18 58 -65 112 -122 140 -35 18 -84 19 -1052 20 -741 2 -1023
-1 -1046 -10z"/>
</g>
</svg>
